<svg width="64" height="64" viewBox="0 0 64 64" fill="none" xmlns="http://www.w3.org/2000/svg">
  <rect width="64" height="64" rx="18" fill="#0A0E14"/>
  <rect x="1" y="1" width="62" height="62" rx="17" stroke="rgba(255,255,255,0.08)"/>
  <g>
    <path d="M24 10.5C17.1 12 11.8 16.6 9.2 22.8C6.5 29 7.1 36.4 10.8 42.1C13.7 46.8 18.2 50.2 23.3 51.5" stroke="#F1DFB7" stroke-width="2.8" stroke-linecap="round"/>
    <path d="M40 10.5C46.9 12 52.2 16.6 54.8 22.8C57.5 29 56.9 36.4 53.2 42.1C50.3 46.8 45.8 50.2 40.7 51.5" stroke="#F1DFB7" stroke-opacity="0.88" stroke-width="2.8" stroke-linecap="round"/>
    <path d="M24 19.5C19.8 20.7 16.4 23.7 14.5 27.7C12.6 31.8 12.7 36.6 14.7 40.5C16.6 44.4 20 47.3 24 48.5" stroke="#F1DFB7" stroke-opacity="0.92" stroke-width="2.8" stroke-linecap="round"/>
    <path d="M40 19.5C44.2 20.7 47.6 23.7 49.5 27.7C51.4 31.8 51.3 36.6 49.3 40.5C47.4 44.4 44 47.3 40 48.5" stroke="#F1DFB7" stroke-opacity="0.86" stroke-width="2.8" stroke-linecap="round"/>
    <circle cx="32" cy="11.5" r="2.7" fill="#F1DFB7"/>
    <rect x="29.3" y="19.6" width="5.4" height="29.1" rx="1.4" fill="#F1DFB7"/>
  </g>
</svg>
